<mxfile host="app.diagrams.net" modified="2024-06-25T18:54:40.978Z" agent="Mozilla/5.0 (Windows NT 10.0; Win64; x64) AppleWebKit/537.36 (KHTML, like Gecko) Chrome/126.0.0.0 Safari/537.36" version="24.6.3" etag="95_1y_WSW9EDOCO29VYv" type="device">
  <diagram id="gd_oPOjduvoULAQ7hkmo" name="Página-1">
    <mxGraphModel dx="1035" dy="551" grid="1" gridSize="10" guides="1" tooltips="1" connect="1" arrows="1" fold="1" page="1" pageScale="1" pageWidth="827" pageHeight="1169" math="0" shadow="0">
      <root>
        <mxCell id="0" />
        <mxCell id="1" parent="0" />
        <mxCell id="M5alDgCTFEUYCks6KKIN-5" value="&lt;div&gt;&lt;font style=&quot;vertical-align: inherit;&quot;&gt;&lt;font style=&quot;vertical-align: inherit;&quot;&gt;Usuario&lt;/font&gt;&lt;/font&gt;&lt;/div&gt;" style="rounded=0;whiteSpace=wrap;html=1;" vertex="1" parent="1">
          <mxGeometry x="120" y="190" width="120" height="60" as="geometry" />
        </mxCell>
        <mxCell id="M5alDgCTFEUYCks6KKIN-6" value="&lt;font style=&quot;vertical-align: inherit;&quot;&gt;&lt;font style=&quot;vertical-align: inherit;&quot;&gt;Compra&lt;/font&gt;&lt;/font&gt;" style="rounded=0;whiteSpace=wrap;html=1;" vertex="1" parent="1">
          <mxGeometry x="510" y="190" width="120" height="60" as="geometry" />
        </mxCell>
        <mxCell id="M5alDgCTFEUYCks6KKIN-7" value="&lt;font style=&quot;vertical-align: inherit;&quot;&gt;&lt;font style=&quot;vertical-align: inherit;&quot;&gt;Realiza&lt;/font&gt;&lt;/font&gt;" style="rhombus;whiteSpace=wrap;html=1;" vertex="1" parent="1">
          <mxGeometry x="340" y="180" width="80" height="80" as="geometry" />
        </mxCell>
        <mxCell id="M5alDgCTFEUYCks6KKIN-12" value="&lt;font style=&quot;vertical-align: inherit;&quot;&gt;&lt;font style=&quot;vertical-align: inherit;&quot;&gt;Productos&lt;/font&gt;&lt;/font&gt;" style="rounded=0;whiteSpace=wrap;html=1;" vertex="1" parent="1">
          <mxGeometry x="620" y="340" width="120" height="60" as="geometry" />
        </mxCell>
        <mxCell id="M5alDgCTFEUYCks6KKIN-13" value="Contiene" style="rhombus;whiteSpace=wrap;html=1;" vertex="1" parent="1">
          <mxGeometry x="670" y="220" width="80" height="80" as="geometry" />
        </mxCell>
        <mxCell id="M5alDgCTFEUYCks6KKIN-18" value="&lt;font style=&quot;vertical-align: inherit;&quot;&gt;&lt;font style=&quot;vertical-align: inherit;&quot;&gt;&lt;font style=&quot;vertical-align: inherit;&quot;&gt;&lt;font style=&quot;vertical-align: inherit;&quot;&gt;&lt;font style=&quot;vertical-align: inherit;&quot;&gt;&lt;font style=&quot;vertical-align: inherit;&quot;&gt;&lt;u&gt;Id&lt;/u&gt;&lt;/font&gt;&lt;/font&gt;&lt;/font&gt;&lt;/font&gt;&lt;/font&gt;&lt;/font&gt;" style="ellipse;whiteSpace=wrap;html=1;" vertex="1" parent="1">
          <mxGeometry x="25" y="280" width="55" height="50" as="geometry" />
        </mxCell>
        <mxCell id="M5alDgCTFEUYCks6KKIN-19" value="&lt;font style=&quot;vertical-align: inherit;&quot;&gt;&lt;font style=&quot;vertical-align: inherit;&quot;&gt;&lt;font style=&quot;vertical-align: inherit;&quot;&gt;&lt;font style=&quot;vertical-align: inherit;&quot;&gt;Nombre&lt;/font&gt;&lt;/font&gt;&lt;/font&gt;&lt;/font&gt;" style="ellipse;whiteSpace=wrap;html=1;" vertex="1" parent="1">
          <mxGeometry x="60" y="80" width="80" height="60" as="geometry" />
        </mxCell>
        <mxCell id="M5alDgCTFEUYCks6KKIN-20" value="&lt;font style=&quot;vertical-align: inherit;&quot;&gt;&lt;font style=&quot;vertical-align: inherit;&quot;&gt;Apellido&lt;/font&gt;&lt;/font&gt;" style="ellipse;whiteSpace=wrap;html=1;" vertex="1" parent="1">
          <mxGeometry x="130" y="320" width="60" height="60" as="geometry" />
        </mxCell>
        <mxCell id="M5alDgCTFEUYCks6KKIN-24" value="Email" style="ellipse;whiteSpace=wrap;html=1;" vertex="1" parent="1">
          <mxGeometry x="150" y="40" width="60" height="60" as="geometry" />
        </mxCell>
        <mxCell id="M5alDgCTFEUYCks6KKIN-25" value="Telefono" style="ellipse;whiteSpace=wrap;html=1;" vertex="1" parent="1">
          <mxGeometry x="240" y="280" width="60" height="40" as="geometry" />
        </mxCell>
        <mxCell id="M5alDgCTFEUYCks6KKIN-28" value="Identidad" style="ellipse;whiteSpace=wrap;html=1;" vertex="1" parent="1">
          <mxGeometry x="25" y="180" width="60" height="50" as="geometry" />
        </mxCell>
        <mxCell id="M5alDgCTFEUYCks6KKIN-30" value="Precio" style="ellipse;whiteSpace=wrap;html=1;" vertex="1" parent="1">
          <mxGeometry x="550" y="70" width="50" height="50" as="geometry" />
        </mxCell>
        <mxCell id="M5alDgCTFEUYCks6KKIN-33" value="Stock" style="ellipse;whiteSpace=wrap;html=1;" vertex="1" parent="1">
          <mxGeometry x="560" y="480" width="50" height="50" as="geometry" />
        </mxCell>
        <mxCell id="M5alDgCTFEUYCks6KKIN-36" value="Cantidad" style="ellipse;whiteSpace=wrap;html=1;" vertex="1" parent="1">
          <mxGeometry x="640" y="100" width="60" height="50" as="geometry" />
        </mxCell>
        <mxCell id="M5alDgCTFEUYCks6KKIN-47" value="Fecha" style="ellipse;whiteSpace=wrap;html=1;" vertex="1" parent="1">
          <mxGeometry x="700" y="470" width="50" height="50" as="geometry" />
        </mxCell>
        <mxCell id="M5alDgCTFEUYCks6KKIN-51" value="Categoria" style="rounded=0;whiteSpace=wrap;html=1;" vertex="1" parent="1">
          <mxGeometry x="350" y="485" width="120" height="60" as="geometry" />
        </mxCell>
        <mxCell id="M5alDgCTFEUYCks6KKIN-56" value="1,1" style="text;html=1;align=center;verticalAlign=middle;whiteSpace=wrap;rounded=0;" vertex="1" parent="1">
          <mxGeometry x="230" y="190" width="60" height="30" as="geometry" />
        </mxCell>
        <mxCell id="M5alDgCTFEUYCks6KKIN-57" value="1:N" style="text;html=1;align=center;verticalAlign=middle;whiteSpace=wrap;rounded=0;" vertex="1" parent="1">
          <mxGeometry x="350" y="150" width="60" height="30" as="geometry" />
        </mxCell>
        <mxCell id="M5alDgCTFEUYCks6KKIN-58" value="1,N" style="text;html=1;align=center;verticalAlign=middle;whiteSpace=wrap;rounded=0;" vertex="1" parent="1">
          <mxGeometry x="450" y="190" width="60" height="30" as="geometry" />
        </mxCell>
        <mxCell id="M5alDgCTFEUYCks6KKIN-59" value="N,N" style="text;html=1;align=center;verticalAlign=middle;whiteSpace=wrap;rounded=0;" vertex="1" parent="1">
          <mxGeometry x="620" y="190" width="60" height="30" as="geometry" />
        </mxCell>
        <mxCell id="M5alDgCTFEUYCks6KKIN-60" value="N,N" style="text;html=1;align=center;verticalAlign=middle;whiteSpace=wrap;rounded=0;" vertex="1" parent="1">
          <mxGeometry x="680" y="190" width="60" height="30" as="geometry" />
        </mxCell>
        <mxCell id="M5alDgCTFEUYCks6KKIN-61" value="N,N" style="text;html=1;align=center;verticalAlign=middle;whiteSpace=wrap;rounded=0;" vertex="1" parent="1">
          <mxGeometry x="690" y="315" width="60" height="30" as="geometry" />
        </mxCell>
        <mxCell id="M5alDgCTFEUYCks6KKIN-62" value="Pertenece" style="rhombus;whiteSpace=wrap;html=1;" vertex="1" parent="1">
          <mxGeometry x="440" y="330" width="80" height="80" as="geometry" />
        </mxCell>
        <mxCell id="M5alDgCTFEUYCks6KKIN-68" value="N,1" style="text;html=1;align=center;verticalAlign=middle;whiteSpace=wrap;rounded=0;" vertex="1" parent="1">
          <mxGeometry x="450" y="290" width="60" height="30" as="geometry" />
        </mxCell>
        <mxCell id="M5alDgCTFEUYCks6KKIN-69" value="1,1" style="text;html=1;align=center;verticalAlign=middle;whiteSpace=wrap;rounded=0;" vertex="1" parent="1">
          <mxGeometry x="414" y="460" width="60" height="30" as="geometry" />
        </mxCell>
        <mxCell id="M5alDgCTFEUYCks6KKIN-70" value="1,N" style="text;html=1;align=center;verticalAlign=middle;whiteSpace=wrap;rounded=0;" vertex="1" parent="1">
          <mxGeometry x="610" y="315" width="60" height="30" as="geometry" />
        </mxCell>
        <mxCell id="M5alDgCTFEUYCks6KKIN-77" value="Contraseña" style="ellipse;whiteSpace=wrap;html=1;" vertex="1" parent="1">
          <mxGeometry x="40" y="400" width="80" height="55" as="geometry" />
        </mxCell>
        <mxCell id="M5alDgCTFEUYCks6KKIN-78" value="ISAdmin" style="ellipse;whiteSpace=wrap;html=1;" vertex="1" parent="1">
          <mxGeometry x="210" y="360" width="100" height="50" as="geometry" />
        </mxCell>
        <mxCell id="M5alDgCTFEUYCks6KKIN-81" value="" style="endArrow=none;html=1;rounded=0;exitX=0.833;exitY=1;exitDx=0;exitDy=0;exitPerimeter=0;entryX=0.385;entryY=0.021;entryDx=0;entryDy=0;entryPerimeter=0;" edge="1" parent="1" source="M5alDgCTFEUYCks6KKIN-5" target="M5alDgCTFEUYCks6KKIN-78">
          <mxGeometry width="50" height="50" relative="1" as="geometry">
            <mxPoint x="170" y="630" as="sourcePoint" />
            <mxPoint x="240.71067811865476" y="580" as="targetPoint" />
          </mxGeometry>
        </mxCell>
        <mxCell id="M5alDgCTFEUYCks6KKIN-83" value="" style="endArrow=none;html=1;rounded=0;exitX=0.5;exitY=0;exitDx=0;exitDy=0;" edge="1" parent="1" source="M5alDgCTFEUYCks6KKIN-20" target="M5alDgCTFEUYCks6KKIN-5">
          <mxGeometry width="50" height="50" relative="1" as="geometry">
            <mxPoint x="160" y="310" as="sourcePoint" />
            <mxPoint x="210" y="260" as="targetPoint" />
          </mxGeometry>
        </mxCell>
        <mxCell id="M5alDgCTFEUYCks6KKIN-89" value="" style="endArrow=none;html=1;rounded=0;exitX=0.855;exitY=0.993;exitDx=0;exitDy=0;exitPerimeter=0;entryX=0.5;entryY=0;entryDx=0;entryDy=0;" edge="1" parent="1" source="M5alDgCTFEUYCks6KKIN-12" target="M5alDgCTFEUYCks6KKIN-47">
          <mxGeometry width="50" height="50" relative="1" as="geometry">
            <mxPoint x="330" y="450" as="sourcePoint" />
            <mxPoint x="500" y="470" as="targetPoint" />
          </mxGeometry>
        </mxCell>
        <mxCell id="M5alDgCTFEUYCks6KKIN-90" value="" style="endArrow=none;html=1;rounded=0;entryX=0.712;entryY=0.086;entryDx=0;entryDy=0;exitX=0;exitY=1;exitDx=0;exitDy=0;entryPerimeter=0;" edge="1" parent="1" source="M5alDgCTFEUYCks6KKIN-12" target="M5alDgCTFEUYCks6KKIN-33">
          <mxGeometry width="50" height="50" relative="1" as="geometry">
            <mxPoint x="620" y="420" as="sourcePoint" />
            <mxPoint x="380" y="400" as="targetPoint" />
          </mxGeometry>
        </mxCell>
        <mxCell id="M5alDgCTFEUYCks6KKIN-93" value="" style="endArrow=none;html=1;rounded=0;exitX=1.024;exitY=0.321;exitDx=0;exitDy=0;exitPerimeter=0;" edge="1" parent="1" source="M5alDgCTFEUYCks6KKIN-18">
          <mxGeometry width="50" height="50" relative="1" as="geometry">
            <mxPoint x="90" y="300" as="sourcePoint" />
            <mxPoint x="140" y="250" as="targetPoint" />
          </mxGeometry>
        </mxCell>
        <mxCell id="M5alDgCTFEUYCks6KKIN-98" value="" style="endArrow=none;html=1;rounded=0;exitX=0.5;exitY=0;exitDx=0;exitDy=0;" edge="1" parent="1" source="M5alDgCTFEUYCks6KKIN-6">
          <mxGeometry width="50" height="50" relative="1" as="geometry">
            <mxPoint x="530" y="170" as="sourcePoint" />
            <mxPoint x="580" y="120" as="targetPoint" />
          </mxGeometry>
        </mxCell>
        <mxCell id="M5alDgCTFEUYCks6KKIN-99" value="" style="endArrow=none;html=1;rounded=0;entryX=0.5;entryY=1;entryDx=0;entryDy=0;exitX=0;exitY=0.25;exitDx=0;exitDy=0;" edge="1" parent="1" source="M5alDgCTFEUYCks6KKIN-59" target="M5alDgCTFEUYCks6KKIN-36">
          <mxGeometry width="50" height="50" relative="1" as="geometry">
            <mxPoint x="310" y="350" as="sourcePoint" />
            <mxPoint x="360" y="300" as="targetPoint" />
          </mxGeometry>
        </mxCell>
        <mxCell id="M5alDgCTFEUYCks6KKIN-100" value="" style="endArrow=none;html=1;rounded=0;exitX=0.5;exitY=0;exitDx=0;exitDy=0;entryX=0.5;entryY=1;entryDx=0;entryDy=0;" edge="1" parent="1" source="M5alDgCTFEUYCks6KKIN-5" target="M5alDgCTFEUYCks6KKIN-24">
          <mxGeometry width="50" height="50" relative="1" as="geometry">
            <mxPoint x="180" y="150" as="sourcePoint" />
            <mxPoint x="230" y="100" as="targetPoint" />
          </mxGeometry>
        </mxCell>
        <mxCell id="M5alDgCTFEUYCks6KKIN-101" value="" style="endArrow=none;html=1;rounded=0;exitX=0.25;exitY=0;exitDx=0;exitDy=0;entryX=0.651;entryY=1.091;entryDx=0;entryDy=0;entryPerimeter=0;" edge="1" parent="1" source="M5alDgCTFEUYCks6KKIN-5" target="M5alDgCTFEUYCks6KKIN-19">
          <mxGeometry width="50" height="50" relative="1" as="geometry">
            <mxPoint x="90" y="190" as="sourcePoint" />
            <mxPoint x="140" y="140" as="targetPoint" />
          </mxGeometry>
        </mxCell>
        <mxCell id="M5alDgCTFEUYCks6KKIN-102" value="" style="endArrow=none;html=1;rounded=0;exitX=1;exitY=0.5;exitDx=0;exitDy=0;" edge="1" parent="1" source="M5alDgCTFEUYCks6KKIN-28">
          <mxGeometry width="50" height="50" relative="1" as="geometry">
            <mxPoint x="70" y="270" as="sourcePoint" />
            <mxPoint x="120" y="220" as="targetPoint" />
          </mxGeometry>
        </mxCell>
        <mxCell id="M5alDgCTFEUYCks6KKIN-103" value="" style="endArrow=none;html=1;rounded=0;entryX=1;entryY=1;entryDx=0;entryDy=0;exitX=0.319;exitY=0.078;exitDx=0;exitDy=0;exitPerimeter=0;" edge="1" parent="1" source="M5alDgCTFEUYCks6KKIN-25" target="M5alDgCTFEUYCks6KKIN-5">
          <mxGeometry width="50" height="50" relative="1" as="geometry">
            <mxPoint x="310" y="350" as="sourcePoint" />
            <mxPoint x="360" y="300" as="targetPoint" />
          </mxGeometry>
        </mxCell>
        <mxCell id="M5alDgCTFEUYCks6KKIN-104" value="" style="endArrow=none;html=1;rounded=0;entryX=0.5;entryY=0;entryDx=0;entryDy=0;exitX=0.25;exitY=1;exitDx=0;exitDy=0;" edge="1" parent="1" source="M5alDgCTFEUYCks6KKIN-5" target="M5alDgCTFEUYCks6KKIN-77">
          <mxGeometry width="50" height="50" relative="1" as="geometry">
            <mxPoint x="138" y="550" as="sourcePoint" />
            <mxPoint x="220" y="620" as="targetPoint" />
          </mxGeometry>
        </mxCell>
        <mxCell id="M5alDgCTFEUYCks6KKIN-107" value="Apellido" style="ellipse;whiteSpace=wrap;html=1;" vertex="1" parent="1">
          <mxGeometry x="245" y="60" width="70" height="60" as="geometry" />
        </mxCell>
        <mxCell id="M5alDgCTFEUYCks6KKIN-108" value="" style="endArrow=none;html=1;rounded=0;entryX=0.29;entryY=0.934;entryDx=0;entryDy=0;entryPerimeter=0;exitX=0;exitY=0.25;exitDx=0;exitDy=0;" edge="1" parent="1" source="M5alDgCTFEUYCks6KKIN-56" target="M5alDgCTFEUYCks6KKIN-107">
          <mxGeometry width="50" height="50" relative="1" as="geometry">
            <mxPoint x="310" y="350" as="sourcePoint" />
            <mxPoint x="360" y="300" as="targetPoint" />
          </mxGeometry>
        </mxCell>
        <mxCell id="M5alDgCTFEUYCks6KKIN-109" value="Nombre" style="ellipse;whiteSpace=wrap;html=1;" vertex="1" parent="1">
          <mxGeometry x="520" y="545" width="60" height="55" as="geometry" />
        </mxCell>
        <mxCell id="M5alDgCTFEUYCks6KKIN-110" value="" style="endArrow=none;html=1;rounded=0;entryX=1;entryY=0.75;entryDx=0;entryDy=0;exitX=0;exitY=0;exitDx=0;exitDy=0;" edge="1" parent="1" source="M5alDgCTFEUYCks6KKIN-109" target="M5alDgCTFEUYCks6KKIN-51">
          <mxGeometry width="50" height="50" relative="1" as="geometry">
            <mxPoint x="380" y="530" as="sourcePoint" />
            <mxPoint x="430" y="480" as="targetPoint" />
            <Array as="points" />
          </mxGeometry>
        </mxCell>
        <mxCell id="M5alDgCTFEUYCks6KKIN-111" value="Oferta" style="ellipse;whiteSpace=wrap;html=1;" vertex="1" parent="1">
          <mxGeometry x="630" y="485" width="50" height="40" as="geometry" />
        </mxCell>
        <mxCell id="M5alDgCTFEUYCks6KKIN-112" value="" style="endArrow=none;html=1;rounded=0;exitX=0.5;exitY=0;exitDx=0;exitDy=0;entryX=0.336;entryY=1.052;entryDx=0;entryDy=0;entryPerimeter=0;" edge="1" parent="1" source="M5alDgCTFEUYCks6KKIN-111" target="M5alDgCTFEUYCks6KKIN-12">
          <mxGeometry width="50" height="50" relative="1" as="geometry">
            <mxPoint x="640" y="460" as="sourcePoint" />
            <mxPoint x="690" y="410" as="targetPoint" />
          </mxGeometry>
        </mxCell>
        <mxCell id="M5alDgCTFEUYCks6KKIN-115" value="" style="endArrow=none;html=1;rounded=0;exitX=1;exitY=0.5;exitDx=0;exitDy=0;" edge="1" parent="1" source="M5alDgCTFEUYCks6KKIN-5" target="M5alDgCTFEUYCks6KKIN-7">
          <mxGeometry width="50" height="50" relative="1" as="geometry">
            <mxPoint x="310" y="350" as="sourcePoint" />
            <mxPoint x="360" y="300" as="targetPoint" />
          </mxGeometry>
        </mxCell>
        <mxCell id="M5alDgCTFEUYCks6KKIN-116" value="" style="endArrow=none;html=1;rounded=0;entryX=0;entryY=0.5;entryDx=0;entryDy=0;exitX=1;exitY=0.5;exitDx=0;exitDy=0;" edge="1" parent="1" source="M5alDgCTFEUYCks6KKIN-7" target="M5alDgCTFEUYCks6KKIN-6">
          <mxGeometry width="50" height="50" relative="1" as="geometry">
            <mxPoint x="310" y="350" as="sourcePoint" />
            <mxPoint x="360" y="300" as="targetPoint" />
          </mxGeometry>
        </mxCell>
        <mxCell id="M5alDgCTFEUYCks6KKIN-117" value="" style="endArrow=none;html=1;rounded=0;exitX=0;exitY=0.5;exitDx=0;exitDy=0;" edge="1" parent="1" source="M5alDgCTFEUYCks6KKIN-13">
          <mxGeometry width="50" height="50" relative="1" as="geometry">
            <mxPoint x="580" y="300" as="sourcePoint" />
            <mxPoint x="630" y="250" as="targetPoint" />
          </mxGeometry>
        </mxCell>
        <mxCell id="M5alDgCTFEUYCks6KKIN-120" value="" style="endArrow=none;html=1;rounded=0;entryX=0.5;entryY=1;entryDx=0;entryDy=0;exitX=0;exitY=0.75;exitDx=0;exitDy=0;" edge="1" parent="1" source="M5alDgCTFEUYCks6KKIN-61" target="M5alDgCTFEUYCks6KKIN-13">
          <mxGeometry width="50" height="50" relative="1" as="geometry">
            <mxPoint x="310" y="350" as="sourcePoint" />
            <mxPoint x="360" y="300" as="targetPoint" />
          </mxGeometry>
        </mxCell>
        <mxCell id="M5alDgCTFEUYCks6KKIN-122" value="" style="endArrow=none;html=1;rounded=0;entryX=0;entryY=0.5;entryDx=0;entryDy=0;exitX=1;exitY=0.5;exitDx=0;exitDy=0;" edge="1" parent="1" source="M5alDgCTFEUYCks6KKIN-62" target="M5alDgCTFEUYCks6KKIN-12">
          <mxGeometry width="50" height="50" relative="1" as="geometry">
            <mxPoint x="310" y="350" as="sourcePoint" />
            <mxPoint x="360" y="300" as="targetPoint" />
          </mxGeometry>
        </mxCell>
        <mxCell id="M5alDgCTFEUYCks6KKIN-124" value="" style="endArrow=none;html=1;rounded=0;entryX=0;entryY=0.5;entryDx=0;entryDy=0;exitX=0.25;exitY=0;exitDx=0;exitDy=0;" edge="1" parent="1" source="M5alDgCTFEUYCks6KKIN-51" target="M5alDgCTFEUYCks6KKIN-62">
          <mxGeometry width="50" height="50" relative="1" as="geometry">
            <mxPoint x="310" y="350" as="sourcePoint" />
            <mxPoint x="360" y="300" as="targetPoint" />
          </mxGeometry>
        </mxCell>
      </root>
    </mxGraphModel>
  </diagram>
</mxfile>
